<svg id="SvgjsSvg1041" width="288" height="288" xmlns="http://www.w3.org/2000/svg" version="1.1" xmlns:xlink="http://www.w3.org/1999/xlink" xmlns:svgjs="http://svgjs.com/svgjs"><defs id="SvgjsDefs1042"></defs><g id="SvgjsG1043"><svg xmlns="http://www.w3.org/2000/svg" viewBox="0 0 24 24" width="288" height="288"><path fill="#124970" d="m9.5,17.25c-1.24,0-2.25,1.009-2.25,2.25s1.01,2.25,2.25,2.25,2.25-1.009,2.25-2.25-1.01-2.25-2.25-2.25Zm0,3c-.413,0-.75-.336-.75-.75s.337-.75.75-.75.75.336.75.75-.337.75-.75.75Zm9-3c-1.24,0-2.25,1.009-2.25,2.25s1.01,2.25,2.25,2.25,2.25-1.009,2.25-2.25-1.01-2.25-2.25-2.25Zm0,3c-.413,0-.75-.336-.75-.75s.337-.75.75-.75.75.336.75.75-.337.75-.75.75Z" class="svgShape color549bff-0 selectable"></path><path fill="#124970" d="m21.187,5.833c-.332-.37-.807-.583-1.304-.583H7.541l-.373-1.12c-.376-1.125-1.424-1.88-2.609-1.88h-1.346c-.414,0-.75.336-.75.75s.336.75.75.75h1.346c.539,0,1.016.344,1.186.855l.52,1.56.794,7.138c.154,1.395,1.329,2.447,2.732,2.447h8.42c1.403,0,2.578-1.052,2.732-2.446l.68-6.111c.055-.494-.104-.99-.436-1.36Zm-1.734,7.306c-.07.634-.604,1.112-1.242,1.112h-8.42c-.638,0-1.172-.478-1.242-1.112l-.71-6.388h12.045c.097,0,.158.052.187.083.027.031.073.098.062.194l-.68,6.111Z" class="svgShape color112d55-1 selectable"></path></svg></g></svg>